<?xml version="1.0" encoding="UTF-8"?>
<svg width="55px" height="56px" viewBox="0 0 55 56" version="1.1" xmlns="http://www.w3.org/2000/svg" xmlns:xlink="http://www.w3.org/1999/xlink">
    <title>path8</title>
    <g id="Page-1" stroke="none" stroke-width="1" fill="none" fill-rule="evenodd">
        <g id="UGO_LOGO" transform="translate(-320.794800, -299.061300)" fill="#FFFFFF">
            <path d="M375.2914,354.0943 L375.2914,299.9691 L321.1701,299.9691 L321.1701,354.0943 L375.2914,354.0943 Z M366.8309,327.8908 C366.5091,327.8908 366.2481,328.1519 366.2481,328.4735 C366.2481,328.6518 366.3284,328.8114 366.4538,328.9191 C369.0566,331.1276 370.5492,334.3356 370.5492,337.7567 C370.5492,344.1217 365.3991,349.3452 358.9605,349.3452 C354.6837,349.3452 350.7764,347.001 348.7523,343.2421 C348.5298,342.8284 347.9408,342.8386 347.724,343.2421 C345.7032,346.9945 341.7992,349.3452 337.5155,349.3452 C331.1721,349.3452 325.9548,344.2262 325.9269,337.808 C325.909,326.7762 325.9275,315.7478 325.9275,304.7179 L330.6679,304.7179 L330.6686,337.7567 C330.6686,341.5358 333.7364,344.6034 337.5155,344.6034 C341.2735,344.6034 344.3315,341.5697 344.3622,337.8123 L344.3582,304.7179 L349.0982,304.7179 L349.0987,308.4316 C349.0987,308.9769 349.7771,309.216 350.1274,308.8088 C352.336,306.2088 355.5415,304.7179 358.9604,304.7179 L369.2918,304.7179 L369.2918,309.4587 L358.9604,309.4607 C355.1815,309.4607 352.1137,312.5284 352.1137,316.3075 C352.1137,320.0655 355.1476,323.1235 358.9048,323.1542 L363.9665,323.1492 C364.288,323.1492 364.549,322.8882 364.549,322.5665 L364.552,319.2591 C364.552,318.9363 364.2899,318.6743 363.9669,318.6743 L358.0845,318.6743 L358.0845,313.9339 L369.2922,313.9339 L369.2922,327.8894 L366.8309,327.8908 Z M352.1138,337.7567 C352.1138,341.5362 355.1816,344.6034 358.9605,344.6034 C362.74,344.6034 365.8076,341.5362 365.8076,337.7567 C365.8076,333.9774 362.74,330.9098 358.9605,330.9098 C355.1816,330.9098 352.1138,333.9774 352.1138,337.7567 Z M350.1311,330.2539 C351.0691,329.1506 352.2031,328.2322 353.4791,327.5459 C353.8924,327.3234 353.8828,326.7346 353.4791,326.5178 C352.2069,325.8336 351.0651,324.9094 350.1301,323.8084 C349.7661,323.3783 349.0684,323.6671 349.1018,324.2212 L349.1025,329.8771 C349.1025,330.4223 349.7808,330.6614 350.1311,330.2539 Z" id="path8"></path>
        </g>
    </g>
</svg>